<svg width="50" height="55" viewBox="0 0 50 55" fill="none" xmlns="http://www.w3.org/2000/svg">
<path d="M44.9725 38.8871C47.8149 34.2356 49.0428 28.4805 48.4055 22.7978L47.535 15.0103C46.991 10.1859 39.0103 8.50411 30.9571 8.9302C31.5578 6.54351 31.9568 3.69047 30.8313 1.82706C29.9628 0.548994 28.6077 -0.129633 27.2242 0.0205955C25.8396 -0.129287 24.4837 0.550033 23.6146 1.82903C22.3192 3.97519 23.0273 7.36918 23.7362 9.84718C14.231 11.7263 7.12253 15.8625 6.32529 20.0164C6.21479 20.4738 6.18641 20.9533 6.24199 21.4243V21.44L6.45692 23.3662C4.40352 23.6468 2.55413 24.9626 1.38693 26.9733C0.222359 29.1352 -0.231258 31.7244 0.111517 34.2531C0.465903 36.9867 1.8417 39.3889 3.86028 40.7986C4.55997 41.3228 5.31141 41.7441 6.09787 42.0533C5.42738 42.9074 5.04258 44.0192 5.01489 45.1823C5.01489 51.5638 16.6036 55 27.5074 55C38.4113 55 50 51.5638 50 45.1823C50 42.7661 48.2639 40.6052 44.9725 38.8871ZM31.6936 46.1846L28.3905 46.6981C18.8165 48.1644 10.0399 40.2277 8.76365 28.9496L8.29631 24.7682C10.8238 26.6876 15.3773 27.5594 20.414 27.5594C22.9069 27.5528 25.3968 27.356 27.8682 26.9703C34.9408 25.8766 41.2262 23.4497 44.7092 20.468C44.7361 20.45 44.762 20.43 44.7867 20.4081C45.3306 19.9497 45.8331 19.4266 46.2862 18.8471L46.7561 23.0491C48.0069 34.3364 41.2684 44.6866 31.6936 46.1846ZM7.1092 29.2068C7.40566 31.8455 8.09758 34.4012 9.15269 36.7547C8.28357 36.7466 7.43141 36.4704 6.68101 35.9536C5.85591 35.455 5.26313 34.5479 5.06488 33.4805C4.92631 32.511 5.02664 31.515 5.35395 30.6107C5.68227 29.8049 6.35248 29.2688 7.1092 29.2068ZM45.8839 15.2656C45.9938 16.2474 45.3374 17.4196 44.042 18.6036C41.7644 18.3133 39.4659 18.339 37.1934 18.6802C34.3927 19.0877 32.2567 18.6213 31.0146 17.3283C30.1738 16.412 29.7067 15.1148 29.7317 13.7654C29.8553 12.7926 30.0791 11.8411 30.3982 10.932C39.7201 10.3067 45.5848 12.6089 45.8839 15.2695V15.2656ZM24.9725 2.96592C25.5394 2.22228 26.3805 1.85512 27.2217 1.98415C28.063 1.85372 28.9047 2.22111 29.471 2.96592C30.4815 4.63985 29.3685 8.42361 29.0028 9.66654L28.9945 9.69697L28.8337 10.2448C28.4324 11.3675 28.1736 12.5538 28.0656 13.7654C28.038 15.679 28.7106 17.5139 29.9117 18.802C31.5453 20.5024 34.0644 21.1209 37.3983 20.63C38.796 20.4281 40.2043 20.347 41.6119 20.3875C37.2013 22.8149 32.4853 24.3813 27.6482 25.0254C16.4619 26.7602 8.26382 24.3892 7.89394 21.1877V21.167C7.89394 21.1366 7.89394 21.1101 7.89394 21.0807C10.9021 20.2951 14.0044 20.1425 17.0576 20.63C20.3898 21.1209 22.9048 20.5034 24.5376 18.8049C25.7414 17.5188 26.4118 15.6798 26.3745 13.7654C26.2705 12.5642 26.0179 11.3873 25.6247 10.2723C25.5464 10.0308 25.4756 9.78926 25.4015 9.52614C24.4485 6.28236 24.3027 4.07533 24.9725 2.96592ZM24.2868 11.7283C24.501 12.3832 24.6427 13.0679 24.7084 13.7654C24.7334 15.1162 24.2664 16.4149 23.4255 17.3332C22.185 18.6252 20.0516 19.0896 17.2533 18.6822C14.433 18.2479 11.5735 18.3101 8.76865 18.8667C10.8296 16.2199 16.4419 13.2373 24.2868 11.7292V11.7283ZM1.76597 33.9969C1.47629 31.9453 1.83174 29.8396 2.76564 28.0748C3.661 26.5227 5.09 25.5128 6.67351 25.3131L6.89094 27.2599C5.58058 27.4066 4.43074 28.3503 3.85944 29.7478C3.38681 31.0001 3.2323 32.387 3.41459 33.7406C3.65949 35.4188 4.55647 36.8654 5.83879 37.6501C7.04586 38.4929 8.45122 38.8551 9.84663 38.6829C9.92993 38.6701 9.99824 38.6358 10.0782 38.6191C10.4114 39.215 10.7622 39.7972 11.1387 40.348C10.7879 40.4789 10.428 40.5732 10.0632 40.6298C8.20021 40.8615 6.32587 40.3371 4.74998 39.1433C3.15273 38.0396 2.05811 36.1517 1.76597 33.9969ZM27.5074 53.0364C15.2348 53.0364 6.68101 48.8973 6.68101 45.1823C6.79172 44.1269 7.2786 43.1772 8.01973 42.5707C8.39904 42.6289 8.78103 42.6593 9.16352 42.662C10.2467 42.671 11.32 42.4201 12.3183 41.9247C16.5319 47.091 22.5802 49.5859 28.6079 48.644L31.9118 48.1276C36.5708 47.4081 40.8406 44.6876 43.9029 40.4874C46.7178 41.8756 48.3339 43.5653 48.3339 45.1823C48.3339 48.8973 39.78 53.0364 27.5074 53.0364Z" fill="#BC9A6C"/>
</svg>
