<svg width="51" height="53" viewBox="0 0 51 53" fill="none" xmlns="http://www.w3.org/2000/svg">
<g clip-path="url(#clip0_1606_7462)" filter="url(#filter0_d_1606_7462)">
<path d="M45.1646 37.6656H38.7996C38.4354 37.6656 38.1404 37.9608 38.1404 38.3248C38.1404 38.6889 38.4354 38.984 38.7996 38.984H44.5054V39.3559L34.9072 41.1786H15.6673L6.06909 39.3559V38.984H8.68999C8.69104 38.984 8.6921 38.9842 8.69307 38.9842C8.69386 38.9842 8.69474 38.984 8.69553 38.984H11.0705C11.0713 38.984 11.072 38.9842 11.0728 38.9842C11.074 38.9842 11.0753 38.984 11.0766 38.984H18.9794C18.9799 38.984 18.9803 38.9841 18.9808 38.9841C18.9813 38.9841 18.9816 38.984 18.9821 38.984H21.3371C21.3378 38.984 21.3385 38.9842 21.3392 38.9842C21.3399 38.9842 21.3407 38.984 21.3414 38.984H29.2331C29.2339 38.984 29.2346 38.9842 29.2353 38.9842C29.236 38.9842 29.2367 38.984 29.2373 38.984H36.3517C36.7158 38.984 37.0109 38.6889 37.0109 38.3248C37.0109 37.9608 36.7158 37.6656 36.3517 37.6656H32.0999C32.8872 37.1654 33.6218 36.5795 34.2823 35.9194C35.2357 34.9656 36.0183 33.8869 36.6165 32.7206C37.4501 33.0601 38.3327 33.2324 39.2477 33.2324C43.1083 33.2324 46.2491 30.0912 46.2491 26.2302C46.2491 22.3696 43.1083 19.2288 39.2477 19.2288C38.8294 19.2288 38.4149 19.2667 38.0076 19.3397V18.9626C38.0076 18.1189 37.3212 17.4324 36.4775 17.4324H33.3599C32.9958 17.4324 32.7007 17.7276 32.7007 18.0916C32.7007 18.4557 32.9958 18.7508 33.3599 18.7508H36.4775C36.5942 18.7508 36.6892 18.8458 36.6892 18.9626V20.0832H13.8842V18.9626C13.8842 18.8458 13.9792 18.7508 14.0961 18.7508H30.9113C31.2754 18.7508 31.5705 18.4557 31.5705 18.0916C31.5705 17.7276 31.2754 17.4324 30.9113 17.4324H14.0961C13.2523 17.4324 12.5659 18.1189 12.5659 18.9626V26.9237C12.5659 27.918 12.6822 28.9037 12.9087 29.861C11.8359 29.5411 10.5574 29.7925 9.39092 30.5906C9.09042 30.7962 9.01343 31.2064 9.219 31.5069C9.42467 31.8073 9.83494 31.8842 10.1354 31.6787C10.8998 31.1557 11.7021 30.9504 12.3655 31.0833L9.96449 34.6755C9.76217 34.9782 9.84355 35.3876 10.1462 35.5898C10.2587 35.6651 10.386 35.7011 10.5119 35.7011C10.7247 35.7011 10.9335 35.5983 11.0605 35.4082L13.4622 31.8147C13.7113 32.1844 13.8478 32.6683 13.8542 33.2322C13.8542 33.2324 13.8542 33.2326 13.8542 33.2329C13.8542 33.2341 13.8543 33.2353 13.8543 33.2366C13.8631 34.1074 13.5589 35.0493 12.9977 35.8888C12.6778 36.3676 12.2995 36.7781 11.8711 37.1107C11.5741 37.3433 11.2621 37.5293 10.9425 37.6656H8.86006C8.83624 37.6514 8.81251 37.6371 8.78887 37.6211C7.69138 36.8881 7.62194 34.9924 8.63075 33.3053C8.81761 32.9929 8.71583 32.588 8.40338 32.4012C8.0911 32.2145 7.68619 32.3161 7.49934 32.6286C6.85624 33.704 6.54212 34.9021 6.61489 36.0024C6.6562 36.6267 6.81959 37.1893 7.08854 37.6656H5.40991C5.04578 37.6656 4.75073 37.9607 4.75073 38.3247V39.9015C4.75073 40.2182 4.97591 40.49 5.28695 40.5491L14.9804 42.3899V44.3408C14.9804 44.7048 15.2755 44.9999 15.6396 44.9999H34.934C35.2982 44.9999 35.5932 44.7048 35.5932 44.3408V42.3901L45.2876 40.5491C45.5986 40.49 45.8238 40.2181 45.8238 39.9015V38.3247C45.8238 37.9608 45.5286 37.6656 45.1646 37.6656ZM38.0075 26.9236V23.8049H38.0076C38.3895 23.6088 38.812 23.5047 39.2477 23.5047C40.7506 23.5047 41.9732 24.7274 41.9732 26.2302C41.9732 27.733 40.7506 28.9557 39.2477 28.9557C38.7688 28.9557 38.3078 28.8313 37.8983 28.5968C37.9702 28.0465 38.0075 27.4879 38.0075 26.9236ZM37.648 29.9448C38.1492 30.1612 38.6906 30.2741 39.2477 30.2741C41.4775 30.2741 43.2916 28.4601 43.2916 26.2303C43.2916 24.0005 41.4775 22.1864 39.2477 22.1864C38.8223 22.1864 38.405 22.253 38.0076 22.381V20.7492C38.0076 20.7469 38.0079 20.7447 38.0079 20.7424C38.0079 20.7401 38.0076 20.7379 38.0076 20.7356V20.6839C38.4122 20.5935 38.8276 20.5472 39.2478 20.5472C42.3814 20.5472 44.9308 23.0965 44.9308 26.2302C44.9308 29.3643 42.3814 31.9141 39.2478 31.9141C38.521 31.9141 37.8205 31.7786 37.1575 31.5152C37.355 31.0042 37.5184 30.4796 37.648 29.9448ZM13.8842 21.4016H36.6892V23.4306C36.6892 23.4313 36.6892 23.4321 36.6892 23.4328V26.9237C36.6892 29.9694 35.5033 32.8332 33.3502 34.9872C32.1572 36.1793 30.6961 37.1032 29.1197 37.6656H21.4556C21.243 37.59 21.0314 37.5086 20.8225 37.4196C21.3062 36.6591 21.4905 35.8131 21.3313 35.0068C21.3311 35.0057 21.331 35.0048 21.3309 35.0037C21.3306 35.0025 21.3302 35.0012 21.33 35C21.1198 33.951 20.3787 33.088 19.2424 32.5696C18.178 32.084 16.8772 31.9583 15.5793 32.216C15.4613 32.2395 15.3443 32.2663 15.2283 32.2957C14.3484 30.6509 13.8842 28.8049 13.8842 26.9237V21.4016ZM14.0939 36.6213C14.7042 35.7083 15.0724 34.6845 15.1547 33.6924C15.3758 33.6178 15.6033 33.5554 15.8363 33.5089C17.5135 33.176 19.1307 33.6807 19.7755 34.6408L15.5392 35.4829C15.1821 35.5539 14.9502 35.9008 15.0211 36.2579C15.0835 36.5716 15.3589 36.7887 15.667 36.7887C15.7096 36.7887 15.7529 36.7845 15.7962 36.7758L20.0352 35.9331C19.9506 36.3668 19.7089 36.8015 19.3218 37.2009C19.3207 37.2019 19.3197 37.2031 19.3188 37.2041C19.1573 37.3698 18.9748 37.5241 18.776 37.6655H13.2335C13.5495 37.3539 13.8377 37.0049 14.0939 36.6213ZM34.2749 43.6818H16.2987V42.497H34.2749V43.6818Z" fill="#BC9A6C"/>
<path d="M27.0034 13.1791C26.9912 13.1869 26.9812 13.1931 26.974 13.1977C26.9807 13.1933 26.9906 13.1871 27.0034 13.1791Z" fill="#BC9A6C"/>
<path d="M26.9741 13.1972C26.9562 13.2084 26.9585 13.207 26.9741 13.1972V13.1972Z" fill="#BC9A6C"/>
<path d="M28.4299 7.19543C29.3176 6.35168 29.8288 5.18247 29.8288 3.92739C29.8288 2.36514 29.038 0.934895 27.7133 0.10134C27.4052 -0.0925465 26.9981 9.01893e-05 26.8043 0.308235C26.6105 0.616379 26.7031 1.02331 27.0112 1.2172C27.9501 1.80791 28.5106 2.82103 28.5106 3.92731C28.5106 5.03359 27.9501 6.0467 27.0112 6.63741C26.6083 6.89019 26.6083 7.49962 27.0112 7.75327C27.9501 8.34399 28.5106 9.3571 28.5106 10.4634C28.5106 11.5697 27.9502 12.583 27.0113 13.1737C27.0079 13.1758 27.0057 13.1772 27.0027 13.1791C27.0055 13.1774 27.0082 13.1757 27.0113 13.1738C26.7032 13.3676 26.6105 13.7746 26.8044 14.0827C26.9297 14.2819 27.1439 14.3909 27.3629 14.3909C27.4829 14.3909 27.6043 14.3582 27.7133 14.2896C29.038 13.4561 29.8288 12.0258 29.8288 10.4636C29.8288 9.20839 29.3175 8.03918 28.4299 7.19543ZM27.3551 12.9573C27.3707 12.9475 27.3726 12.9463 27.3551 12.9573V12.9573ZM27.2693 13.0114C27.2837 13.0023 27.2971 12.9939 27.3091 12.9864C27.2976 12.9936 27.2847 13.0017 27.2693 13.0114Z" fill="#BC9A6C"/>
<path d="M32.3523 6.6376C32.0443 6.44371 31.6372 6.53626 31.4434 6.8445C31.2495 7.15255 31.3421 7.55957 31.6503 7.75346C32.589 8.34417 33.1495 9.35738 33.1495 10.4637C33.1496 11.5698 32.5891 12.583 31.6504 13.1737C31.3422 13.3676 31.2496 13.7745 31.4435 14.0826C31.5687 14.2818 31.7829 14.3909 32.0019 14.3909C32.1219 14.3909 32.2434 14.3581 32.3523 14.2895C33.6769 13.4561 34.4678 12.0257 34.4678 10.4636C34.4678 8.9014 33.6769 7.47107 32.3523 6.6376Z" fill="#BC9A6C"/>
<path d="M22.6944 6.63752C22.3863 6.44363 21.9791 6.53627 21.7854 6.84441C21.5915 7.15256 21.6842 7.55949 21.9923 7.75338C22.9312 8.34409 23.4916 9.35721 23.4916 10.4635C23.4917 11.5698 22.9313 12.583 21.9924 13.1737C21.6843 13.3676 21.5916 13.7745 21.7855 14.0826C21.9108 14.2818 22.1249 14.3909 22.344 14.3909C22.4639 14.3909 22.5854 14.3581 22.6944 14.2895C24.0191 13.4561 24.8099 12.0257 24.8099 10.4636C24.8099 8.90132 24.0191 7.47107 22.6944 6.63752Z" fill="#BC9A6C"/>
</g>
<defs>
<filter id="filter0_d_1606_7462" x="-1" y="0" width="53" height="53" filterUnits="userSpaceOnUse" color-interpolation-filters="sRGB">
<feFlood flood-opacity="0" result="BackgroundImageFix"/>
<feColorMatrix in="SourceAlpha" type="matrix" values="0 0 0 0 0 0 0 0 0 0 0 0 0 0 0 0 0 0 127 0" result="hardAlpha"/>
<feOffset dy="4"/>
<feGaussianBlur stdDeviation="2"/>
<feComposite in2="hardAlpha" operator="out"/>
<feColorMatrix type="matrix" values="0 0 0 0 0 0 0 0 0 0 0 0 0 0 0 0 0 0 0.25 0"/>
<feBlend mode="normal" in2="BackgroundImageFix" result="effect1_dropShadow_1606_7462"/>
<feBlend mode="normal" in="SourceGraphic" in2="effect1_dropShadow_1606_7462" result="shape"/>
</filter>
<clipPath id="clip0_1606_7462">
<rect width="45" height="45" fill="white" transform="translate(3)"/>
</clipPath>
</defs>
</svg>
