<svg width="45" height="45" viewBox="0 0 45 45" fill="none" xmlns="http://www.w3.org/2000/svg">
<mask id="path-1-inside-1_359_17437" fill="white">
<path d="M44.9542 8.91844L43.1542 4.69969C43.0318 4.41211 42.688 4.21875 42.3001 4.21875H41.149L39.5542 0.480938C39.4318 0.193359 39.088 0 38.7001 0H6.30028C5.91238 0 5.56858 0.193359 5.44618 0.480938L3.85139 4.21875H2.70029C2.3124 4.21875 1.9695 4.41211 1.8462 4.69969L0.0462079 8.91844C-0.0455917 9.13289 0.00120811 9.36844 0.170407 9.55195C0.339606 9.73547 0.611405 9.84375 0.900304 9.84375H3.66959L7.20297 44.3531C7.24077 44.7188 7.63137 45 8.10027 45H36.9001C37.369 45 37.7596 44.7188 37.7974 44.3531L41.3308 9.84375H44.1001C44.389 9.84375 44.6608 9.73547 44.83 9.55125C44.9992 9.36844 45.0451 9.13289 44.9542 8.91844V8.91844ZM36.9721 34.778H8.02827L6.27868 17.6941H38.7208L36.9721 34.778ZM8.93097 43.5938L8.17227 36.1842H36.8281L36.0694 43.5938H8.93097ZM38.8657 16.2886H6.13468L5.47498 9.84375H39.5254L38.8657 16.2886ZM2.1486 8.4375L3.34829 5.625H4.50029C4.88818 5.625 5.23198 5.43164 5.35438 5.14406L6.94917 1.40625H38.0521L39.6469 5.14406C39.7693 5.43164 40.1122 5.625 40.5001 5.625H41.6512L42.8509 8.4375H2.1486Z"/>
</mask>
<path d="M44.9542 8.91844L43.1542 4.69969C43.0318 4.41211 42.688 4.21875 42.3001 4.21875H41.149L39.5542 0.480938C39.4318 0.193359 39.088 0 38.7001 0H6.30028C5.91238 0 5.56858 0.193359 5.44618 0.480938L3.85139 4.21875H2.70029C2.3124 4.21875 1.9695 4.41211 1.8462 4.69969L0.0462079 8.91844C-0.0455917 9.13289 0.00120811 9.36844 0.170407 9.55195C0.339606 9.73547 0.611405 9.84375 0.900304 9.84375H3.66959L7.20297 44.3531C7.24077 44.7188 7.63137 45 8.10027 45H36.9001C37.369 45 37.7596 44.7188 37.7974 44.3531L41.3308 9.84375H44.1001C44.389 9.84375 44.6608 9.73547 44.83 9.55125C44.9992 9.36844 45.0451 9.13289 44.9542 8.91844V8.91844ZM36.9721 34.778H8.02827L6.27868 17.6941H38.7208L36.9721 34.778ZM8.93097 43.5938L8.17227 36.1842H36.8281L36.0694 43.5938H8.93097ZM38.8657 16.2886H6.13468L5.47498 9.84375H39.5254L38.8657 16.2886ZM2.1486 8.4375L3.34829 5.625H4.50029C4.88818 5.625 5.23198 5.43164 5.35438 5.14406L6.94917 1.40625H38.0521L39.6469 5.14406C39.7693 5.43164 40.1122 5.625 40.5001 5.625H41.6512L42.8509 8.4375H2.1486Z" fill="#BC9A6C"/>
<path d="M43.1542 4.69969L35.7932 7.83269L35.796 7.83918L43.1542 4.69969ZM41.149 4.21875L33.7908 7.35825L35.8646 12.2188H41.149V4.21875ZM39.5542 0.480938L32.1932 3.61394L32.196 3.62043L39.5542 0.480938ZM5.44618 0.480938L12.8044 3.62043L12.8072 3.61394L5.44618 0.480938ZM3.85139 4.21875V12.2188H9.13582L11.2096 7.35825L3.85139 4.21875ZM1.8462 4.69969L-5.50649 1.54721L-5.51203 1.56019L1.8462 4.69969ZM0.0462079 8.91844L7.40072 12.0666L7.40444 12.0579L0.0462079 8.91844ZM3.66959 9.84375L11.628 9.0289L10.8923 1.84375H3.66959V9.84375ZM7.20297 44.3531L-0.755423 45.168L-0.754613 45.1758L7.20297 44.3531ZM37.7974 44.3531L45.755 45.1758L45.7558 45.168L37.7974 44.3531ZM41.3308 9.84375V1.84375H34.1081L33.3724 9.0289L41.3308 9.84375ZM44.83 9.55125L38.9588 4.11722L38.9484 4.12844L38.9381 4.13969L44.83 9.55125ZM36.9721 34.778V42.778H44.1951L44.9305 35.5926L36.9721 34.778ZM8.02827 34.778L0.0698956 35.593L0.805723 42.778H8.02827V34.778ZM6.27868 17.6941V9.69414H-2.58246L-1.6797 18.5092L6.27868 17.6941ZM38.7208 17.6941L46.6792 18.5088L47.5815 9.69414H38.7208V17.6941ZM8.93097 43.5938L0.972577 44.4086L1.70829 51.5938H8.93097V43.5938ZM8.17227 36.1842V28.1842H-0.688718L0.213881 36.9991L8.17227 36.1842ZM36.8281 36.1842L44.7865 36.9991L45.6891 28.1842H36.8281V36.1842ZM36.0694 43.5938V51.5938H43.2921L44.0278 44.4086L36.0694 43.5938ZM38.8657 16.2886V24.2886H46.0886L46.8241 17.1032L38.8657 16.2886ZM6.13468 16.2886L-1.82374 17.1032L-1.08824 24.2886H6.13468V16.2886ZM5.47498 9.84375V1.84375H-3.3857L-2.48343 10.6584L5.47498 9.84375ZM39.5254 9.84375L47.4838 10.6584L48.3861 1.84375H39.5254V9.84375ZM2.1486 8.4375L-5.20992 5.29867L-9.96128 16.4375H2.1486V8.4375ZM3.34829 5.625V-2.375H-1.93665L-4.01022 2.48617L3.34829 5.625ZM5.35438 5.14406L-2.00385 2.00457L-2.00662 2.01106L5.35438 5.14406ZM6.94917 1.40625V-6.59375H1.66475L-0.409057 -1.73325L6.94917 1.40625ZM38.0521 1.40625L45.4104 -1.73325L43.3366 -6.59375H38.0521V1.40625ZM39.6469 5.14406L47.0079 2.01106L47.0051 2.00457L39.6469 5.14406ZM41.6512 5.625L49.0097 2.48617L46.9362 -2.375H41.6512V5.625ZM42.8509 8.4375V16.4375H54.9608L50.2094 5.29867L42.8509 8.4375ZM52.3124 5.77894L50.5124 1.56019L35.796 7.83918L37.596 12.0579L52.3124 5.77894ZM50.5152 1.56669C48.7982 -2.46732 44.9325 -3.78125 42.3001 -3.78125V12.2188C40.4435 12.2188 37.2654 11.2915 35.7932 7.83269L50.5152 1.56669ZM42.3001 -3.78125H41.149V12.2188H42.3001V-3.78125ZM48.5072 1.07925L46.9125 -2.65856L32.196 3.62043L33.7908 7.35825L48.5072 1.07925ZM46.9152 -2.65206C45.1983 -6.68607 41.3325 -8 38.7001 -8V8C36.8436 8 33.6654 7.07279 32.1932 3.61394L46.9152 -2.65206ZM38.7001 -8H6.30028V8H38.7001V-8ZM6.30028 -8C3.66791 -8 -0.197861 -6.68606 -1.91482 -2.65206L12.8072 3.61394C11.335 7.07278 8.15685 8 6.30028 8V-8ZM-1.91205 -2.65856L-3.50684 1.07925L11.2096 7.35825L12.8044 3.62043L-1.91205 -2.65856ZM3.85139 -3.78125H2.70029V12.2188H3.85139V-3.78125ZM2.70029 -3.78125C0.051714 -3.78125 -3.78947 -2.45746 -5.50648 1.54722L9.19888 7.85216C7.72847 11.2817 4.57308 12.2188 2.70029 12.2188V-3.78125ZM-5.51203 1.56019L-7.31202 5.77894L7.40444 12.0579L9.20443 7.83918L-5.51203 1.56019ZM-7.3083 5.77024C-8.75874 9.15861 -7.80558 12.7032 -5.71121 14.9747L6.05203 4.12917C7.808 6.03372 8.66756 9.10717 7.40072 12.0666L-7.3083 5.77024ZM-5.71121 14.9747C-3.77682 17.0728 -1.2244 17.8438 0.900304 17.8438V1.84375C2.44721 1.84375 4.45603 2.39814 6.05203 4.12917L-5.71121 14.9747ZM0.900304 17.8438H3.66959V1.84375H0.900304V17.8438ZM-4.2888 10.6586L-0.755419 45.168L15.1614 43.5383L11.628 9.0289L-4.2888 10.6586ZM-0.754613 45.1758C-0.143672 51.0852 5.19575 53 8.10027 53V37C9.42277 37 10.8704 37.3889 12.1672 38.3234C13.4633 39.2575 14.8989 40.9996 15.1606 43.5304L-0.754613 45.1758ZM8.10027 53H36.9001V37H8.10027V53ZM36.9001 53C39.8046 53 45.1441 51.0853 45.755 45.1758L29.8398 43.5304C30.1015 40.9996 31.5371 39.2575 32.8332 38.3234C34.13 37.3889 35.5776 37 36.9001 37V53ZM45.7558 45.168L49.2892 10.6586L33.3724 9.0289L29.839 43.5383L45.7558 45.168ZM41.3308 17.8438H44.1001V1.84375H41.3308V17.8438ZM44.1001 17.8438C46.2256 17.8438 48.7849 17.0717 50.7219 14.9628L38.9381 4.13969C40.5366 2.39919 42.5524 1.84375 44.1001 1.84375V17.8438ZM50.7012 14.9853C52.8284 12.687 53.7391 9.14467 52.3198 5.79638L37.5885 12.0405C36.3511 9.12111 37.17 6.04989 38.9588 4.11722L50.7012 14.9853ZM36.9721 26.778H8.02827V42.778H36.9721V26.778ZM15.9866 33.9629L14.2371 16.8791L-1.6797 18.5092L0.0698956 35.593L15.9866 33.9629ZM6.27868 25.6941H38.7208V9.69414H6.27868V25.6941ZM30.7624 16.8795L29.0137 33.9634L44.9305 35.5926L46.6792 18.5088L30.7624 16.8795ZM16.8894 42.7789L16.1307 35.3693L0.213881 36.9991L0.972577 44.4086L16.8894 42.7789ZM8.17227 44.1842H36.8281V28.1842H8.17227V44.1842ZM28.8697 35.3693L28.111 42.7789L44.0278 44.4086L44.7865 36.9991L28.8697 35.3693ZM36.0694 35.5938H8.93097V51.5938H36.0694V35.5938ZM38.8657 8.28859H6.13468V24.2886H38.8657V8.28859ZM14.0931 15.474L13.4334 9.02912L-2.48343 10.6584L-1.82374 17.1032L14.0931 15.474ZM5.47498 17.8438H39.5254V1.84375H5.47498V17.8438ZM31.567 9.02912L30.9073 15.474L46.8241 17.1032L47.4838 10.6584L31.567 9.02912ZM9.50711 11.5763L10.7068 8.76383L-4.01022 2.48617L-5.20992 5.29867L9.50711 11.5763ZM3.34829 13.625H4.50029V-2.375H3.34829V13.625ZM4.50029 13.625C7.13265 13.625 10.9984 12.3111 12.7154 8.27706L-2.00662 2.01106C-0.534459 -1.44778 2.64372 -2.375 4.50029 -2.375V13.625ZM12.7126 8.28356L14.3074 4.54575L-0.409057 -1.73325L-2.00385 2.00457L12.7126 8.28356ZM6.94917 9.40625H38.0521V-6.59375H6.94917V9.40625ZM30.6939 4.54575L32.2887 8.28356L47.0051 2.00457L45.4104 -1.73325L30.6939 4.54575ZM32.2859 8.27706C34 12.3043 37.8587 13.625 40.5001 13.625V-2.375C42.3658 -2.375 45.5386 -1.44106 47.0079 2.01106L32.2859 8.27706ZM40.5001 13.625H41.6512V-2.375H40.5001V13.625ZM34.2927 8.76383L35.4924 11.5763L50.2094 5.29867L49.0097 2.48617L34.2927 8.76383ZM42.8509 0.4375H2.1486V16.4375H42.8509V0.4375Z" fill="#BC9A6C" mask="url(#path-1-inside-1_359_17437)"/>
<mask id="path-3-inside-2_359_17437" fill="white">
<path d="M22.4999 19.6875C18.9359 19.6875 16.0361 22.6842 16.0361 26.3672C16.0361 30.0502 18.9359 33.0469 22.4999 33.0469C26.0639 33.0469 28.9637 30.0502 28.9637 26.3672C28.9637 22.6842 26.0639 19.6875 22.4999 19.6875ZM17.8361 26.3672C17.8361 25.0727 18.2519 23.888 18.9386 22.9697C18.9251 23.1061 18.8999 23.2383 18.8999 23.3789C18.8999 25.4489 20.4812 27.0703 22.4999 27.0703C23.4584 27.0703 24.2999 28.1384 24.2999 29.3555C24.2999 30.5726 23.4584 31.6406 22.4999 31.6406C19.9286 31.6406 17.8361 29.2753 17.8361 26.3672ZM26.0612 29.7647C26.0747 29.6283 26.0999 29.4961 26.0999 29.3555C26.0999 27.2855 24.5186 25.6641 22.4999 25.6641C21.5414 25.6641 20.6999 24.596 20.6999 23.3789C20.6999 22.1618 21.5414 21.0937 22.4999 21.0937C25.0712 21.0937 27.1637 23.4591 27.1637 26.3672C27.1637 27.6616 26.747 28.8464 26.0612 29.7647Z"/>
</mask>
<path d="M22.4999 19.6875C18.9359 19.6875 16.0361 22.6842 16.0361 26.3672C16.0361 30.0502 18.9359 33.0469 22.4999 33.0469C26.0639 33.0469 28.9637 30.0502 28.9637 26.3672C28.9637 22.6842 26.0639 19.6875 22.4999 19.6875ZM17.8361 26.3672C17.8361 25.0727 18.2519 23.888 18.9386 22.9697C18.9251 23.1061 18.8999 23.2383 18.8999 23.3789C18.8999 25.4489 20.4812 27.0703 22.4999 27.0703C23.4584 27.0703 24.2999 28.1384 24.2999 29.3555C24.2999 30.5726 23.4584 31.6406 22.4999 31.6406C19.9286 31.6406 17.8361 29.2753 17.8361 26.3672ZM26.0612 29.7647C26.0747 29.6283 26.0999 29.4961 26.0999 29.3555C26.0999 27.2855 24.5186 25.6641 22.4999 25.6641C21.5414 25.6641 20.6999 24.596 20.6999 23.3789C20.6999 22.1618 21.5414 21.0937 22.4999 21.0937C25.0712 21.0937 27.1637 23.4591 27.1637 26.3672C27.1637 27.6616 26.747 28.8464 26.0612 29.7647Z" fill="#BC9A6C"/>
<path d="M18.9386 22.9697L26.8997 23.7576L29.7276 -4.81623L12.5319 18.1787L18.9386 22.9697ZM26.0612 29.7647L18.1001 28.9768L15.2687 57.5854L32.4709 34.5517L26.0612 29.7647ZM22.4999 11.6875C14.2718 11.6875 8.03613 18.5158 8.03613 26.3672H24.0361C24.0361 26.8526 23.6 27.6875 22.4999 27.6875V11.6875ZM8.03613 26.3672C8.03613 34.2186 14.2718 41.0469 22.4999 41.0469V25.0469C23.6 25.0469 24.0361 25.8817 24.0361 26.3672H8.03613ZM22.4999 41.0469C30.728 41.0469 36.9637 34.2186 36.9637 26.3672H20.9637C20.9637 25.8817 21.3998 25.0469 22.4999 25.0469V41.0469ZM36.9637 26.3672C36.9637 18.5158 30.728 11.6875 22.4999 11.6875V27.6875C21.3998 27.6875 20.9637 26.8526 20.9637 26.3672H36.9637ZM25.8361 26.3672C25.8361 26.7876 25.7003 27.286 25.3454 27.7607L12.5319 18.1787C10.8035 20.4899 9.83612 23.3579 9.83612 26.3672H25.8361ZM10.9775 22.1818C10.985 22.1062 10.9918 22.0543 10.9898 22.07C10.9849 22.1089 10.9916 22.0556 10.9837 22.1177C10.9804 22.1437 10.9752 22.1858 10.9693 22.235C10.9476 22.4191 10.8999 22.8464 10.8999 23.3789H26.8999C26.8999 23.5819 26.8908 23.7509 26.8816 23.8734C26.8727 23.9929 26.8626 24.0807 26.8591 24.1104C26.8573 24.1258 26.8562 24.1341 26.8572 24.1263C26.8577 24.1223 26.8582 24.1181 26.8595 24.1083C26.8605 24.1 26.8622 24.0869 26.864 24.0728C26.8705 24.021 26.8855 23.9014 26.8997 23.7576L10.9775 22.1818ZM10.8999 23.3789C10.8999 29.6769 15.8751 35.0703 22.4999 35.0703V19.0703C25.0874 19.0703 26.8999 21.2209 26.8999 23.3789H10.8999ZM22.4999 35.0703C19.8934 35.0703 18.2203 33.653 17.475 32.707C16.6903 31.7109 16.2999 30.5372 16.2999 29.3555H32.2999C32.2999 26.9566 31.4887 24.6404 30.0437 22.806C28.638 21.0216 26.0649 19.0703 22.4999 19.0703V35.0703ZM16.2999 29.3555C16.2999 28.1737 16.6903 27.0001 17.475 26.004C18.2203 25.0579 19.8934 23.6406 22.4999 23.6406V39.6406C26.0649 39.6406 28.638 37.6893 30.0437 35.9049C31.4887 34.0706 32.2999 31.7543 32.2999 29.3555H16.2999ZM22.4999 23.6406C23.7732 23.6406 24.7085 24.243 25.1962 24.7943C25.6719 25.3322 25.8361 25.9094 25.8361 26.3672H9.83612C9.83612 32.7423 14.6156 39.6406 22.4999 39.6406V23.6406ZM34.0223 30.5526C34.0148 30.6282 34.008 30.6801 34.01 30.6644C34.0149 30.6255 34.0082 30.6787 34.0161 30.6166C34.0194 30.5906 34.0247 30.5485 34.0305 30.4993C34.0522 30.3153 34.0999 29.888 34.0999 29.3555H18.0999C18.0999 29.1525 18.109 28.9835 18.1182 28.861C18.1271 28.7415 18.1372 28.6536 18.1407 28.624C18.1426 28.6086 18.1436 28.6003 18.1427 28.608C18.1421 28.612 18.1416 28.6163 18.1404 28.6261C18.1393 28.6344 18.1376 28.6475 18.1359 28.6616C18.1293 28.7134 18.1143 28.833 18.1001 28.9768L34.0223 30.5526ZM34.0999 29.3555C34.0999 23.0574 29.1248 17.6641 22.4999 17.6641V33.6641C19.9124 33.6641 18.0999 31.5135 18.0999 29.3555H34.0999ZM22.4999 17.6641C25.1064 17.6641 26.7795 19.0814 27.5248 20.0274C28.3095 21.0235 28.6999 22.1971 28.6999 23.3789H12.6999C12.6999 25.7778 13.5111 28.094 14.9561 29.9284C16.3618 31.7127 18.9349 33.6641 22.4999 33.6641V17.6641ZM28.6999 23.3789C28.6999 24.5607 28.3095 25.7343 27.5248 26.7304C26.7795 27.6764 25.1064 29.0938 22.4999 29.0938V13.0938C18.9349 13.0938 16.3618 15.0451 14.9561 16.8294C13.5111 18.6638 12.6999 20.98 12.6999 23.3789H28.6999ZM22.4999 29.0938C21.2266 29.0938 20.2913 28.4914 19.8036 27.94C19.3279 27.4022 19.1637 26.825 19.1637 26.3672H35.1637C35.1637 19.9921 30.3842 13.0938 22.4999 13.0938V29.0938ZM19.1637 26.3672C19.1637 25.943 19.3008 25.4473 19.6514 24.9777L32.4709 34.5517C34.1932 32.2456 35.1637 29.3803 35.1637 26.3672H19.1637Z" fill="#BC9A6C" mask="url(#path-3-inside-2_359_17437)"/>
<path d="M12.1001 4.92188C12.1001 5.17045 12.0746 5.40499 12.0292 5.625H11.371C11.3255 5.40499 11.3001 5.17045 11.3001 4.92188C11.3001 4.6733 11.3255 4.43876 11.371 4.21875L12.0292 4.21875C12.0746 4.43876 12.1001 4.6733 12.1001 4.92188Z" fill="#BC9A6C" stroke="#BC9A6C" stroke-width="8"/>
<mask id="path-6-inside-3_359_17437" fill="white">
<path d="M35.1001 4.21875H21.6002C21.1034 4.21875 20.7002 4.53375 20.7002 4.92188C20.7002 5.31 21.1034 5.625 21.6002 5.625H35.1001C35.5969 5.625 36.0001 5.31 36.0001 4.92188C36.0001 4.53375 35.5969 4.21875 35.1001 4.21875Z"/>
</mask>
<path d="M35.1001 4.21875H21.6002C21.1034 4.21875 20.7002 4.53375 20.7002 4.92188C20.7002 5.31 21.1034 5.625 21.6002 5.625H35.1001C35.5969 5.625 36.0001 5.31 36.0001 4.92188C36.0001 4.53375 35.5969 4.21875 35.1001 4.21875Z" fill="#BC9A6C"/>
<path d="M35.1001 -3.78125H21.6002V12.2188H35.1001V-3.78125ZM21.6002 -3.78125C18.6363 -3.78125 12.7002 -1.61074 12.7002 4.92188H28.7002C28.7002 7.67429 27.2506 9.6652 25.8891 10.7289C24.5381 11.7844 22.9956 12.2188 21.6002 12.2188V-3.78125ZM12.7002 4.92188C12.7002 11.4545 18.6363 13.625 21.6002 13.625V-2.375C22.9956 -2.375 24.5381 -1.94066 25.8891 -0.885199C27.2506 0.178548 28.7002 2.16946 28.7002 4.92188H12.7002ZM21.6002 13.625H35.1001V-2.375H21.6002V13.625ZM35.1001 13.625C38.064 13.625 44.0001 11.4545 44.0001 4.92188H28.0001C28.0001 2.16946 29.4497 0.178548 30.8113 -0.885199C32.1622 -1.94066 33.7047 -2.375 35.1001 -2.375V13.625ZM44.0001 4.92188C44.0001 -1.61074 38.064 -3.78125 35.1001 -3.78125V12.2188C33.7047 12.2188 32.1622 11.7844 30.8113 10.7289C29.4497 9.6652 28.0001 7.67429 28.0001 4.92188H44.0001Z" fill="#BC9A6C" mask="url(#path-6-inside-3_359_17437)"/>
</svg>
