<svg width="6" height="12" viewBox="0 0 6 12" fill="none" xmlns="http://www.w3.org/2000/svg">
<path d="M5.98755 3.62921L5.79419 5.51984H4.2688V11.0198H2.01294V5.51984H0.874268V3.62921H1.99146V2.49054C1.99146 2.10382 2.02726 1.76007 2.09888 1.45929C2.18481 1.14419 2.32804 0.886373 2.52856 0.685852C2.72909 0.471008 2.97974 0.306295 3.28052 0.191711C3.59562 0.0771281 3.98234 0.0198364 4.44067 0.0198364H5.96606V1.91046H5.02075C4.83455 1.91046 4.69132 1.93195 4.59106 1.97491C4.4908 2.00356 4.41203 2.05369 4.35474 2.12531C4.31177 2.1826 4.28312 2.26137 4.2688 2.36163C4.25448 2.44757 4.24731 2.55499 4.24731 2.6839V3.62921H5.96606H5.98755Z" fill="#BC9A6C"/>
</svg>
