<svg width="45" height="45" viewBox="0 0 45 45" fill="none" xmlns="http://www.w3.org/2000/svg">
<path d="M14.6384 45C15.1678 45.0001 15.6963 44.9563 16.2186 44.8692C16.3862 44.8417 16.5586 44.8082 16.7294 44.7697C17.6868 44.5552 18.6066 44.1946 19.4573 43.7002C21.9966 42.2293 23.9968 39.5442 25.0892 36.1393C25.4568 34.9866 25.7168 33.8013 25.8656 32.5992C26.2276 32.6351 26.5929 32.6551 26.9618 32.6551C29.1988 32.6551 31.5487 31.9991 33.8573 30.7183C36.8415 29.0628 39.4839 26.5042 41.4988 23.3193C46.0528 16.1235 46.1774 7.58007 41.7957 3.00566C41.0437 2.21908 40.1664 1.5667 39.2006 1.07595C36.295 -0.402523 32.718 -0.355878 29.1289 1.20704C25.5924 2.74682 22.3551 5.63362 20.0131 9.335C19.3207 10.4283 18.7185 11.5777 18.2126 12.7715C16.1604 11.2411 13.8572 10.3601 11.4967 10.3299C10.7576 10.3205 10.0198 10.3972 9.29785 10.5584C8.96623 10.6323 8.63881 10.7245 8.31705 10.8344C5.23415 11.879 2.7426 14.4821 1.30149 18.1645C-0.118684 21.7914 -0.386574 26.1548 0.546913 30.4495C2.39399 38.9519 8.39402 45 14.6384 45V45ZM41.2178 4.63835C42.7326 6.53569 43.5342 9.18154 43.4883 12.1823C43.4361 15.6013 42.2806 19.2648 40.2349 22.4968C38.3553 25.4677 35.9008 27.8487 33.1366 29.3822C30.7821 30.6883 28.3132 31.2828 26.0968 31.0914C30.4628 27.6139 33.4028 22.6184 34.3484 17.0705C35.104 12.6629 37.2092 8.60853 40.3652 5.48292L41.2178 4.63835ZM37.8368 3.83757L38.9921 2.69361C39.086 2.74968 39.1804 2.80727 39.2737 2.86753C39.5881 3.07231 39.8882 3.29884 40.1718 3.54551L39.316 4.39275C35.9339 7.74202 33.678 12.0866 32.8686 16.8098C32.0509 21.6069 29.6328 25.9734 26.0192 29.1779C25.999 28.5618 25.9534 27.9416 25.8825 27.3175C28.9872 24.043 31.0551 19.9015 31.8205 15.4256C32.5673 11.0149 34.6737 6.9579 37.8368 3.83757V3.83757ZM21.2768 10.1576C25.4311 3.59177 32.3581 0.20111 37.5308 2.01229L36.7877 2.74815C33.3982 6.09158 31.1411 10.4388 30.3408 15.1649C29.6948 18.9454 28.0509 22.4776 25.584 25.3864C25.5508 25.2172 25.5166 25.0478 25.4798 24.8785C24.4844 20.2965 22.2642 16.3871 19.4243 13.7779C19.9299 12.5155 20.5501 11.3036 21.2768 10.1576V10.1576ZM12.2188 13.1066L12.2307 11.8977C14.625 12.1484 17.039 13.4398 19.103 15.5899C21.4548 18.0403 23.1987 21.4555 24.0136 25.2063C24.7959 28.8081 24.6707 32.5236 23.6617 35.6683C22.8893 38.0749 21.6286 40.0677 20.0402 41.4309C20.6918 35.8395 19.2765 30.2017 16.0679 25.607C13.5563 22.0171 12.2104 17.7226 12.2174 13.3209C12.2174 13.2499 12.2174 13.1797 12.2184 13.1066H12.2188ZM9.28555 13.7622L9.30085 12.1249C9.40683 12.0963 9.51327 12.0698 9.62046 12.0459C9.98573 11.9645 10.3561 11.9087 10.7289 11.8788L10.7171 13.0899C10.7161 13.1674 10.7161 13.2437 10.7161 13.3212C10.7085 18.038 12.1507 22.6399 14.842 26.4867C17.8763 30.8316 19.1911 36.1737 18.5259 41.4551L18.3886 42.5557C17.9373 42.7917 17.4655 42.9848 16.979 43.1323L17.0823 42.3023C17.2009 41.3501 17.2604 40.3914 17.2606 39.4316C17.2687 34.7138 15.8264 30.1107 13.1346 26.2629C10.5801 22.6138 9.23235 18.2372 9.28508 13.7622H9.28555ZM7.7931 12.6943L7.78324 13.7474C7.72684 18.5424 9.17108 23.2322 11.9083 27.1423C14.4204 30.733 15.7664 35.0284 15.759 39.4311C15.7588 40.3269 15.7031 41.2217 15.5923 42.1104L15.4268 43.4381C12.7538 43.6952 9.97377 42.6105 7.53882 40.3443C4.86789 37.8583 2.90574 34.2279 2.01374 30.1218C0.357681 22.5036 2.87664 15.1339 7.7931 12.6943V12.6943Z" fill="white"/>
<path d="M25.7319 9.49421C25.9217 9.49443 26.1044 9.42155 26.2432 9.2903C26.5582 8.9931 26.8894 8.7058 27.2275 8.4364C27.305 8.3746 27.3698 8.29791 27.4181 8.21073C27.4664 8.12354 27.4973 8.02756 27.5091 7.92825C27.5208 7.82895 27.5131 7.72828 27.4865 7.63198C27.4599 7.53569 27.4148 7.44565 27.3539 7.36702C27.2929 7.28839 27.2173 7.2227 27.1313 7.1737C27.0454 7.1247 26.9507 7.09336 26.8528 7.08145C26.7549 7.06955 26.6556 7.07733 26.5607 7.10433C26.4657 7.13133 26.377 7.17704 26.2994 7.23884C25.9289 7.53394 25.5658 7.84914 25.22 8.17499C25.1095 8.27918 25.0326 8.41469 24.9991 8.56388C24.9657 8.71306 24.9774 8.86899 25.0326 9.01137C25.0878 9.15374 25.184 9.27595 25.3087 9.36207C25.4333 9.44819 25.5807 9.49424 25.7315 9.49421H25.7319Z" fill="white"/>
<path d="M21.8951 14.1705C21.9833 14.2151 22.0794 14.2416 22.1778 14.2486C22.2762 14.2555 22.3749 14.2426 22.4684 14.2108C22.5619 14.179 22.6483 14.1288 22.7226 14.0631C22.797 13.9973 22.8578 13.9174 22.9017 13.8278C23.3802 12.8524 23.9566 11.9296 24.6217 11.0741C24.6843 10.9958 24.7308 10.9056 24.7587 10.8089C24.7866 10.7121 24.7953 10.6107 24.7842 10.5106C24.7732 10.4104 24.7427 10.3134 24.6944 10.2253C24.6462 10.1372 24.5811 10.0597 24.5031 9.99725C24.4251 9.93482 24.3356 9.88872 24.2399 9.86161C24.1442 9.83451 24.0441 9.82695 23.9455 9.83936C23.8468 9.85178 23.7516 9.88393 23.6653 9.93395C23.579 9.98397 23.5034 10.0509 23.4428 10.1307C22.7134 11.0686 22.0815 12.0803 21.557 13.1498C21.4684 13.3306 21.4542 13.5397 21.5176 13.7312C21.581 13.9226 21.7168 14.0806 21.8951 14.1705V14.1705Z" fill="white"/>
<path d="M7.36703 37.8168C7.49648 37.9703 7.68077 38.0654 7.87935 38.0811C8.07793 38.0969 8.27454 38.032 8.42592 37.9007C8.5773 37.7694 8.67106 37.5825 8.68657 37.3811C8.70208 37.1797 8.63807 36.9803 8.50862 36.8268C8.22899 36.495 7.9596 36.1475 7.70842 35.7937C7.59201 35.6298 7.41618 35.5195 7.21959 35.4871C7.02301 35.4547 6.82178 35.5028 6.66018 35.6209C6.49858 35.7389 6.38984 35.9173 6.35788 36.1166C6.32592 36.316 6.37336 36.5201 6.48977 36.684C6.76564 37.072 7.06075 37.4531 7.36703 37.8168Z" fill="white"/>
<path d="M9.21999 39.6998C10.1135 40.4781 11.0837 41.1608 12.1154 41.737C12.2019 41.7856 12.2969 41.8164 12.3951 41.8277C12.4932 41.839 12.5926 41.8305 12.6876 41.8027C12.7825 41.775 12.8711 41.7285 12.9483 41.6659C13.0255 41.6034 13.0898 41.526 13.1374 41.4382C13.1851 41.3504 13.2152 41.254 13.226 41.1543C13.2368 41.0547 13.2281 40.9539 13.2005 40.8577C13.1728 40.7615 13.1267 40.6718 13.0648 40.5937C13.0028 40.5156 12.9263 40.4507 12.8396 40.4027C11.8986 39.8772 11.0136 39.2545 10.1986 38.5447C10.0473 38.415 9.8516 38.3512 9.6541 38.3672C9.4566 38.3831 9.27333 38.4776 9.14422 38.63C9.01511 38.7825 8.95063 38.9804 8.96482 39.1809C8.97901 39.3813 9.07073 39.5679 9.21999 39.7V39.6998Z" fill="white"/>
</svg>
