<svg width="20" height="20" viewBox="0 0 20 20" fill="none" xmlns="http://www.w3.org/2000/svg">
<path d="M10.4419 16.5533L16.7726 10.2227C18.3281 8.66716 18.5576 6.10813 17.0855 4.47342C16.7168 4.06277 16.2683 3.73155 15.7673 3.49996C15.2664 3.26838 14.7235 3.1413 14.1718 3.12646C13.6201 3.11162 13.0712 3.20935 12.5585 3.41367C12.0458 3.618 11.5801 3.92463 11.1899 4.31488L10 5.50475L8.97267 4.47741C7.41717 2.92191 4.85814 2.69242 3.22343 4.16445C2.81277 4.53317 2.48155 4.98169 2.24997 5.48265C2.01839 5.98361 1.8913 6.5265 1.87647 7.07819C1.86163 7.62989 1.95936 8.17883 2.16368 8.69151C2.368 9.20419 2.67464 9.66986 3.06488 10.0601L9.55806 16.5533C9.67527 16.6705 9.83424 16.7364 10 16.7364C10.1658 16.7364 10.3247 16.6705 10.4419 16.5533V16.5533Z" stroke="#1F242E" stroke-width="1.5" stroke-linecap="round" stroke-linejoin="round"/>
</svg>
