<svg width="9" height="11" viewBox="0 0 9 11" fill="none" xmlns="http://www.w3.org/2000/svg">
<path d="M8.66357 4.03784C8.66357 4.65373 8.57764 5.22664 8.40576 5.75659C8.24821 6.28654 8.01904 6.74487 7.71826 7.13159C7.41748 7.50399 7.05941 7.80477 6.64404 8.03394C6.22868 8.24878 5.77035 8.34904 5.26904 8.33472C5.09717 8.34904 4.92529 8.33472 4.75342 8.29175C4.59587 8.23446 4.44548 8.17716 4.30225 8.11987C4.17334 8.04826 4.05876 7.96232 3.9585 7.86206C3.85824 7.7618 3.77946 7.6687 3.72217 7.58276C3.63623 7.92651 3.56462 8.21297 3.50732 8.44214C3.45003 8.67131 3.3999 8.85034 3.35693 8.97925C3.32829 9.09383 3.3068 9.17977 3.29248 9.23706C3.29248 9.28003 3.29248 9.29435 3.29248 9.28003C3.24951 9.40894 3.20654 9.53068 3.16357 9.64526C3.12061 9.75985 3.07048 9.88159 3.01318 10.0105C2.95589 10.1251 2.89144 10.2325 2.81982 10.3328C2.76253 10.433 2.70524 10.5333 2.64795 10.6335C2.47607 10.7481 2.34001 10.7983 2.23975 10.7839C2.15381 10.7839 2.08219 10.7481 2.0249 10.6765C1.98193 10.6049 1.95329 10.5333 1.93896 10.4617C1.92464 10.4044 1.91748 10.3686 1.91748 10.3542C1.90316 10.254 1.896 10.1466 1.896 10.032C1.896 9.90308 1.896 9.78133 1.896 9.66675C1.91032 9.53784 1.92464 9.40894 1.93896 9.28003C1.96761 9.15112 1.99626 9.03654 2.0249 8.93628C2.0249 8.92196 2.03206 8.87899 2.04639 8.80737C2.07503 8.72144 2.118 8.55672 2.17529 8.31323C2.23258 8.05542 2.31136 7.70451 2.41162 7.2605C2.51188 6.81649 2.64795 6.22925 2.81982 5.49878C2.77686 5.41284 2.74105 5.30542 2.7124 5.17651C2.68376 5.04761 2.66227 4.94019 2.64795 4.85425C2.63363 4.75399 2.62646 4.66805 2.62646 4.59644C2.62646 4.52482 2.62646 4.49618 2.62646 4.5105C2.62646 4.26701 2.65511 4.05216 2.7124 3.86597C2.78402 3.66545 2.86995 3.49357 2.97021 3.35034C3.0848 3.19279 3.2137 3.07821 3.35693 3.00659C3.51449 2.92065 3.67204 2.87052 3.82959 2.8562C3.97282 2.87052 4.09456 2.89917 4.19482 2.94214C4.30941 2.98511 4.40251 3.05672 4.47412 3.15698C4.54574 3.25724 4.59587 3.36466 4.62451 3.47925C4.66748 3.57951 4.68896 3.70125 4.68896 3.84448C4.68896 3.97339 4.66748 4.13094 4.62451 4.31714C4.58154 4.48901 4.53141 4.66805 4.47412 4.85425C4.41683 5.04045 4.35238 5.24097 4.28076 5.45581C4.22347 5.65633 4.17334 5.84969 4.13037 6.03589C4.0874 6.22209 4.08024 6.3868 4.10889 6.53003C4.15186 6.65894 4.21631 6.78784 4.30225 6.91675C4.40251 7.03133 4.52425 7.11727 4.66748 7.17456C4.81071 7.23185 4.9611 7.26766 5.11865 7.28198C5.41943 7.26766 5.69157 7.17456 5.93506 7.00269C6.17855 6.83081 6.38623 6.58732 6.55811 6.27222C6.7443 5.95711 6.88037 5.6062 6.96631 5.21948C7.06657 4.81844 7.1167 4.38159 7.1167 3.90894C7.1167 3.57951 7.05941 3.2644 6.94482 2.96362C6.83024 2.66284 6.65837 2.41219 6.4292 2.21167C6.21436 1.99683 5.94222 1.82495 5.61279 1.69604C5.29769 1.56714 4.92529 1.50985 4.49561 1.52417C4.02295 1.50985 3.59326 1.58862 3.20654 1.7605C2.83415 1.93237 2.51188 2.15438 2.23975 2.42651C1.96761 2.69865 1.75993 3.02091 1.6167 3.39331C1.47347 3.75138 1.40186 4.12378 1.40186 4.5105C1.40186 4.66805 1.40902 4.80412 1.42334 4.9187C1.45199 5.01896 1.48063 5.12638 1.50928 5.24097C1.55225 5.34123 1.59521 5.43433 1.63818 5.52026C1.69548 5.59188 1.75993 5.67782 1.83154 5.77808C1.86019 5.7924 1.88167 5.82104 1.896 5.86401C1.91032 5.89266 1.91748 5.91414 1.91748 5.92847C1.9318 5.94279 1.93896 5.97144 1.93896 6.0144C1.93896 6.04305 1.9318 6.0717 1.91748 6.10034C1.90316 6.14331 1.88883 6.18628 1.87451 6.22925C1.87451 6.25789 1.86735 6.30086 1.85303 6.35815C1.8387 6.41545 1.82438 6.46558 1.81006 6.50854C1.79574 6.53719 1.78857 6.573 1.78857 6.61597C1.77425 6.64461 1.75277 6.68042 1.72412 6.72339C1.7098 6.75203 1.68831 6.77352 1.65967 6.78784C1.63102 6.78784 1.60238 6.795 1.57373 6.80933C1.54508 6.80933 1.50928 6.795 1.46631 6.76636C1.25146 6.68042 1.05811 6.55868 0.88623 6.40112C0.728678 6.22925 0.599772 6.04305 0.499512 5.84253C0.399251 5.64201 0.320475 5.41284 0.263184 5.15503C0.205892 4.89722 0.177246 4.6394 0.177246 4.38159C0.177246 3.92326 0.270345 3.46493 0.456543 3.00659C0.657064 2.54826 0.943522 2.12573 1.31592 1.73901C1.68831 1.35229 2.15381 1.04435 2.7124 0.815186C3.271 0.571696 3.92269 0.44279 4.66748 0.428467C5.26904 0.44279 5.81331 0.550212 6.30029 0.750732C6.8016 0.93693 7.22412 1.2019 7.56787 1.54565C7.91162 1.8894 8.1766 2.27612 8.36279 2.70581C8.56331 3.12118 8.66357 3.56519 8.66357 4.03784Z" fill="#BC9A6C"/>
</svg>
