<svg width="28" height="28" viewBox="0 0 28 28" fill="none" xmlns="http://www.w3.org/2000/svg">
<path d="M24.9537 13.2534L9.20628 3.62961C9.07364 3.54855 8.9218 3.50428 8.76638 3.50137C8.61096 3.49846 8.45757 3.53701 8.32199 3.61305C8.18641 3.68908 8.07354 3.79987 7.99497 3.934C7.91641 4.06813 7.875 4.22077 7.875 4.37622V23.6237C7.875 23.7792 7.91641 23.9318 7.99497 24.066C8.07354 24.2001 8.18641 24.3109 8.32199 24.3869C8.45757 24.4629 8.61096 24.5015 8.76638 24.4986C8.9218 24.4957 9.07364 24.4514 9.20628 24.3703L24.9537 14.7466C25.0816 14.6684 25.1873 14.5587 25.2606 14.428C25.3339 14.2972 25.3724 14.1499 25.3724 14C25.3724 13.8501 25.3339 13.7027 25.2606 13.572C25.1873 13.4412 25.0816 13.3315 24.9537 13.2534Z" stroke="#BC9A6C" stroke-width="1.5" stroke-linecap="round" stroke-linejoin="round"/>
</svg>
