<svg width="50" height="55" viewBox="0 0 50 55" fill="none" xmlns="http://www.w3.org/2000/svg">
<path d="M46.7626 12.6137L42.9739 7.5024V3.48423C42.9713 1.56066 40.8789 0.0019381 38.2976 0H11.7017C9.1204 0.0019381 7.0287 1.56066 7.0261 3.48423V7.5024L3.23671 12.6137C1.1164 15.4787 0.00260081 18.6969 0 21.9689V50.9503C0.00455147 53.1859 2.43566 54.9976 5.43635 55H44.5636C47.5637 54.9976 49.9954 53.1859 50 50.9503V21.9689C49.9967 18.6969 48.8836 15.4787 46.7626 12.6137ZM30.2098 2.4425H38.2944C39.0662 2.44346 39.6917 2.90909 39.6923 3.48423V6.59634H30.213L30.2098 2.4425ZM22.8345 8.42688C22.9801 8.24179 23.0562 8.03102 23.0562 7.81637V2.4425H26.9269V7.48883L24.1082 11.1116H20.7584L22.8345 8.42688ZM10.3038 3.48423C10.3044 2.90909 10.9299 2.44346 11.7017 2.4425H19.7863V6.59488H10.3038V3.48423ZM3.27768 50.9503V21.9689C3.28028 19.1097 4.25363 16.298 6.10671 13.7945L9.63146 9.03883H18.5815L16.4957 11.7255C16.2031 12.1035 16.2024 12.5686 16.495 12.9465C16.7876 13.3245 17.3279 13.557 17.9131 13.5575H25.0601C25.6453 13.557 26.1856 13.3245 26.4782 12.947L29.5179 9.03883H38.5571L35.9068 12.6137C33.7865 15.4787 32.6727 18.6969 32.6701 21.9689V52.5599H5.43635C4.24388 52.5594 3.27768 51.839 3.27768 50.9503ZM46.7217 50.9503C46.7204 51.838 45.7548 52.557 44.5636 52.5575H42.9739V35.806C42.9739 35.1315 42.2398 34.585 41.3347 34.585C40.4297 34.585 39.6962 35.1315 39.6962 35.806V52.5599H35.9478V21.9689C35.9504 19.1097 36.9238 16.298 38.7762 13.7945L41.3347 10.3432L43.8933 13.7945C45.7464 16.298 46.7191 19.1097 46.7217 21.9689V50.9503Z" fill="#BC9A6C"/>
</svg>
