<svg width="11" height="9" viewBox="0 0 11 9" fill="none" xmlns="http://www.w3.org/2000/svg">
<path d="M10.3723 0.502197C10.2721 0.387614 10.1503 0.301676 10.0071 0.244385C9.87817 0.17277 9.73494 0.12264 9.57739 0.0939941C9.41984 0.0653483 9.26229 0.0581868 9.10474 0.0725098C8.94718 0.0725098 8.79679 0.0796712 8.65356 0.0939941C8.5533 0.108317 8.38859 0.165609 8.15942 0.265869C7.94458 0.36613 7.70825 0.509359 7.45044 0.695557C7.20695 0.881755 6.97062 1.11808 6.74146 1.40454C6.51229 1.67668 6.33325 2.01326 6.20435 2.41431C6.43351 2.39998 6.63403 2.39998 6.80591 2.41431C6.97778 2.42863 7.11385 2.4716 7.21411 2.54321C7.32869 2.61483 7.40747 2.72941 7.45044 2.88696C7.50773 3.03019 7.52205 3.22355 7.49341 3.46704C7.47909 3.5673 7.4576 3.67472 7.42896 3.78931C7.40031 3.88957 7.3645 3.99699 7.32153 4.11157C7.27856 4.22616 7.22843 4.34074 7.17114 4.45532C7.12817 4.55558 7.07804 4.663 7.02075 4.77759C6.94914 4.90649 6.8632 5.04972 6.76294 5.20728C6.677 5.36483 6.56958 5.5009 6.44067 5.61548C6.32609 5.73006 6.19002 5.79451 6.03247 5.80884C5.88924 5.82316 5.73885 5.73722 5.5813 5.55103C5.42375 5.39347 5.302 5.20728 5.21606 4.99243C5.14445 4.76326 5.08716 4.52694 5.04419 4.28345C5.01554 4.03996 4.9869 3.79647 4.95825 3.55298C4.94393 3.29517 4.92244 3.066 4.8938 2.86548C4.86515 2.7509 4.83651 2.63631 4.80786 2.52173C4.79354 2.39282 4.77205 2.26392 4.74341 2.13501C4.72909 2.0061 4.7076 1.8772 4.67896 1.74829C4.65031 1.61938 4.6145 1.49048 4.57153 1.36157C4.54289 1.26131 4.49992 1.16105 4.44263 1.06079C4.39966 0.946208 4.34237 0.845947 4.27075 0.76001C4.19914 0.674072 4.12036 0.595296 4.03442 0.523682C3.96281 0.452067 3.88403 0.401937 3.7981 0.373291C3.69784 0.344645 3.59041 0.337484 3.47583 0.351807C3.37557 0.351807 3.26815 0.36613 3.15356 0.394775C3.0533 0.409098 2.95304 0.437744 2.85278 0.480713C2.76685 0.523682 2.68807 0.56665 2.61646 0.609619C2.40161 0.738525 2.19393 0.881755 1.99341 1.03931C1.80721 1.19686 1.62101 1.36157 1.43481 1.53345C1.24862 1.691 1.05526 1.85571 0.854736 2.02759C0.668538 2.18514 0.468018 2.34269 0.253174 2.50024V2.5647C0.324788 2.60767 0.374919 2.65063 0.403564 2.6936C0.446533 2.73657 0.475179 2.77954 0.489502 2.82251C0.518148 2.86548 0.539632 2.90129 0.553955 2.92993C0.582601 2.95858 0.62557 2.98006 0.682861 2.99438C0.82609 3.00871 0.962158 2.99438 1.09106 2.95142C1.21997 2.90845 1.34172 2.87264 1.4563 2.84399C1.57088 2.81535 1.6783 2.81535 1.77856 2.84399C1.89315 2.85832 2.00057 2.93709 2.10083 3.08032C2.15812 3.18058 2.20109 3.28084 2.22974 3.3811C2.27271 3.46704 2.30851 3.56014 2.33716 3.6604C2.3658 3.76066 2.39445 3.86092 2.4231 3.96118C2.45174 4.06144 2.48039 4.1617 2.50903 4.26196C2.56632 4.39087 2.60929 4.52694 2.63794 4.67017C2.68091 4.79907 2.72388 4.93514 2.76685 5.07837C2.80981 5.2216 2.84562 5.37199 2.87427 5.52954C2.91724 5.67277 2.96021 5.816 3.00317 5.95923C3.06047 6.21704 3.12492 6.5035 3.19653 6.8186C3.28247 7.11938 3.38273 7.413 3.49731 7.69946C3.6119 7.9716 3.7408 8.22225 3.88403 8.45142C4.04159 8.66626 4.23494 8.81665 4.46411 8.90259C4.57869 8.95988 4.70044 8.98853 4.82935 8.98853C4.97257 8.9742 5.10864 8.95272 5.23755 8.92407C5.38078 8.89543 5.50968 8.85246 5.62427 8.79517C5.75317 8.73787 5.8606 8.68774 5.94653 8.64478C6.1757 8.50155 6.39054 8.35116 6.59106 8.1936C6.80591 8.02173 7.00643 7.84269 7.19263 7.65649C7.39315 7.4703 7.57218 7.27694 7.72974 7.07642C7.90161 6.8759 8.06632 6.67537 8.22388 6.47485C8.58195 5.98787 8.89705 5.5009 9.16919 5.01392C9.45565 4.51261 9.69198 4.04712 9.87817 3.61743C10.0787 3.17342 10.2362 2.7867 10.3508 2.45728C10.4654 2.12785 10.537 1.88436 10.5657 1.72681C10.58 1.61222 10.5872 1.5048 10.5872 1.40454C10.6015 1.28996 10.6015 1.18254 10.5872 1.08228C10.5872 0.982015 10.5657 0.881755 10.5227 0.781494C10.4797 0.681234 10.4296 0.588135 10.3723 0.502197Z" fill="#BC9A6C"/>
</svg>
